<?xml version="1.0" encoding="UTF-8" standalone="no"?>
<!DOCTYPE svg PUBLIC "-//W3C//DTD SVG 1.1//EN"
 "http://www.w3.org/Graphics/SVG/1.1/DTD/svg11.dtd">
<!-- Generated by graphviz version 2.43.0 (0)
 -->
<!-- Title: awk_workload_accepts_sched_trace_spurious Pages: 1 -->
<svg width="3290pt" height="1649pt"
 viewBox="0.00 0.00 3290.28 1649.14" xmlns="http://www.w3.org/2000/svg" xmlns:xlink="http://www.w3.org/1999/xlink">
<g id="graph0" class="graph" transform="scale(1 1) rotate(0) translate(4 1645.14)">
<title>awk_workload_accepts_sched_trace_spurious</title>
<polygon fill="white" stroke="transparent" points="-4,4 -4,-1645.14 3286.28,-1645.14 3286.28,4 -4,4"/>
<!-- DispatchModel_SpuriousDispatchModel -->
<g id="node1" class="node">
<title>DispatchModel_SpuriousDispatchModel</title>
<g id="a_node1"><a xlink:href="DispatchModel.html#SpuriousDispatchModel" xlink:title="SpuriousDispatchModel">
<ellipse fill="#7faaff" stroke="black" cx="2586.88" cy="-1623.14" rx="122.38" ry="18"/>
<text text-anchor="middle" x="2586.88" y="-1619.44" font-family="Times,serif" font-size="14.00">SpuriousDispatchModel</text>
</a>
</g>
</g>
<!-- _AwkernelTaskTraceSummary -->
<g id="node2" class="node">
<title>_AwkernelTaskTraceSummary</title>
<g id="a_node2"><a xlink:href=".html#AwkernelTaskTraceSummary" xlink:title="AwkernelTaskTraceSummary">
<ellipse fill="#e2cdfa" stroke="black" cx="1137.18" cy="-585.99" rx="145.67" ry="18"/>
<text text-anchor="middle" x="1137.18" y="-582.29" font-family="Times,serif" font-size="14.00">AwkernelTaskTraceSummary</text>
</a>
</g>
</g>
<!-- _None -->
<g id="node3" class="node">
<title>_None</title>
<g id="a_node3"><a xlink:href=".html#None" xlink:title="None">
<ellipse fill="#7faaff" stroke="black" cx="493.27" cy="-447.26" rx="35.19" ry="18"/>
<text text-anchor="middle" x="493.27" y="-443.56" font-family="Times,serif" font-size="14.00">None</text>
</a>
</g>
</g>
<!-- _accept_sched_trace_from_with_model -->
<g id="node4" class="node">
<title>_accept_sched_trace_from_with_model</title>
<g id="a_node4"><a xlink:href=".html#accept_sched_trace_from_with_model" xlink:title="accept_sched_trace_from_with_model">
<ellipse fill="#f070d1" stroke="black" cx="367.67" cy="-1401.24" rx="184.67" ry="18"/>
<text text-anchor="middle" x="367.67" y="-1397.54" font-family="Times,serif" font-size="14.00">accept_sched_trace_from_with_model</text>
</a>
</g>
</g>
<!-- _awk_workload_accepts_sched_trace_spurious -->
<g id="node5" class="node">
<title>_awk_workload_accepts_sched_trace_spurious</title>
<g id="a_node5"><a xlink:href=".html#awk_workload_accepts_sched_trace_spurious" xlink:title="awk_workload_accepts_sched_trace_spurious">
<ellipse fill="#f070d1" stroke="black" cx="2179.41" cy="-1278.08" rx="219.85" ry="18"/>
<ellipse fill="none" stroke="black" cx="2179.41" cy="-1278.08" rx="223.86" ry="22"/>
<ellipse fill="none" stroke="black" cx="2179.41" cy="-1278.08" rx="227.86" ry="26"/>
<text text-anchor="middle" x="2179.41" y="-1274.38" font-family="Times,serif" font-size="14.00">awk_workload_accepts_sched_trace_spurious</text>
</a>
</g>
</g>
<!-- _awk_workload_accepts_sched_trace_spurious&#45;&gt;DispatchModel_SpuriousDispatchModel -->
<g id="edge1" class="edge">
<title>_awk_workload_accepts_sched_trace_spurious&#45;&gt;DispatchModel_SpuriousDispatchModel</title>
<path fill="none" stroke="black" d="M2210.04,-1304.02C2286.14,-1368.46 2483.03,-1535.19 2557.64,-1598.37"/>
<polygon fill="black" stroke="black" points="2555.81,-1601.41 2565.71,-1605.21 2560.34,-1596.07 2555.81,-1601.41"/>
</g>
<!-- _awk_workload_accepts_sched_trace_with_model -->
<g id="node6" class="node">
<title>_awk_workload_accepts_sched_trace_with_model</title>
<g id="a_node6"><a xlink:href=".html#awk_workload_accepts_sched_trace_with_model" xlink:title="awk_workload_accepts_sched_trace_with_model">
<ellipse fill="#f070d1" stroke="black" cx="1664.92" cy="-818.63" rx="232.86" ry="18"/>
<text text-anchor="middle" x="1664.92" y="-814.93" font-family="Times,serif" font-size="14.00">awk_workload_accepts_sched_trace_with_model</text>
</a>
</g>
</g>
<!-- _awk_workload_accepts_sched_trace_spurious&#45;&gt;_awk_workload_accepts_sched_trace_with_model -->
<g id="edge2" class="edge">
<title>_awk_workload_accepts_sched_trace_spurious&#45;&gt;_awk_workload_accepts_sched_trace_with_model</title>
<path fill="none" stroke="black" d="M2150.28,-1252.06C2059.38,-1170.89 1781.79,-923 1692.73,-843.47"/>
<polygon fill="black" stroke="black" points="1694.98,-840.79 1685.19,-836.74 1690.32,-846.01 1694.98,-840.79"/>
</g>
<!-- _initial_task_trace_summary -->
<g id="node8" class="node">
<title>_initial_task_trace_summary</title>
<g id="a_node8"><a xlink:href=".html#initial_task_trace_summary" xlink:title="initial_task_trace_summary">
<ellipse fill="#f070d1" stroke="black" cx="1105.27" cy="-354.87" rx="137.58" ry="18"/>
<text text-anchor="middle" x="1105.27" y="-351.17" font-family="Times,serif" font-size="14.00">initial_task_trace_summary</text>
</a>
</g>
</g>
<!-- _awk_workload_accepts_sched_trace_with_model&#45;&gt;_initial_task_trace_summary -->
<g id="edge3" class="edge">
<title>_awk_workload_accepts_sched_trace_with_model&#45;&gt;_initial_task_trace_summary</title>
<path fill="none" stroke="black" d="M1642.98,-800.45C1555.8,-728.21 1233.83,-461.4 1134.59,-379.16"/>
<polygon fill="black" stroke="black" points="1136.69,-376.36 1126.76,-372.67 1132.23,-381.75 1136.69,-376.36"/>
</g>
<!-- _sched_trace_family_member_with_model -->
<g id="node11" class="node">
<title>_sched_trace_family_member_with_model</title>
<g id="a_node11"><a xlink:href=".html#sched_trace_family_member_with_model" xlink:title="sched_trace_family_member_with_model">
<ellipse fill="#f070d1" stroke="black" cx="792.43" cy="-1041.83" rx="199.56" ry="18"/>
<text text-anchor="middle" x="792.43" y="-1038.13" font-family="Times,serif" font-size="14.00">sched_trace_family_member_with_model</text>
</a>
</g>
</g>
<!-- _awk_workload_accepts_sched_trace_with_model&#45;&gt;_sched_trace_family_member_with_model -->
<g id="edge4" class="edge">
<title>_awk_workload_accepts_sched_trace_with_model&#45;&gt;_sched_trace_family_member_with_model</title>
<path fill="none" stroke="black" d="M1597.54,-835.87C1437.84,-876.72 1037.11,-979.24 868.78,-1022.3"/>
<polygon fill="black" stroke="black" points="867.82,-1018.93 859,-1024.8 869.55,-1025.72 867.82,-1018.93"/>
</g>
<!-- _summarize_task_trace -->
<g id="node12" class="node">
<title>_summarize_task_trace</title>
<g id="a_node12"><a xlink:href=".html#summarize_task_trace" xlink:title="summarize_task_trace">
<ellipse fill="#f070d1" stroke="black" cx="2417.74" cy="-472.35" rx="114.28" ry="18"/>
<text text-anchor="middle" x="2417.74" y="-468.65" font-family="Times,serif" font-size="14.00">summarize_task_trace</text>
</a>
</g>
</g>
<!-- _awk_workload_accepts_sched_trace_with_model&#45;&gt;_summarize_task_trace -->
<g id="edge5" class="edge">
<title>_awk_workload_accepts_sched_trace_with_model&#45;&gt;_summarize_task_trace</title>
<path fill="none" stroke="black" d="M1703.55,-800.87C1830.26,-742.58 2233.05,-557.31 2370.93,-493.89"/>
<polygon fill="black" stroke="black" points="2372.77,-496.89 2380.39,-489.54 2369.84,-490.53 2372.77,-496.89"/>
</g>
<!-- _initial_sched_trace_acceptance_state -->
<g id="node7" class="node">
<title>_initial_sched_trace_acceptance_state</title>
<g id="a_node7"><a xlink:href=".html#initial_sched_trace_acceptance_state" xlink:title="initial_sched_trace_acceptance_state">
<ellipse fill="#f070d1" stroke="black" cx="282.12" cy="-690.72" rx="180.87" ry="18"/>
<text text-anchor="middle" x="282.12" y="-687.02" font-family="Times,serif" font-size="14.00">initial_sched_trace_acceptance_state</text>
</a>
</g>
</g>
<!-- _initial_sched_trace_acceptance_state&#45;&gt;_None -->
<g id="edge6" class="edge">
<title>_initial_sched_trace_acceptance_state&#45;&gt;_None</title>
<path fill="none" stroke="black" d="M297.99,-672.42C335.53,-629.14 429.78,-520.47 472.11,-471.66"/>
<polygon fill="black" stroke="black" points="475.01,-473.66 478.91,-463.81 469.72,-469.08 475.01,-473.66"/>
</g>
<!-- _nil -->
<g id="node10" class="node">
<title>_nil</title>
<g id="a_node10"><a xlink:href=".html#nil" xlink:title="nil">
<ellipse fill="#7faaff" stroke="black" cx="371.45" cy="-272.46" rx="27" ry="18"/>
<text text-anchor="middle" x="371.45" y="-268.76" font-family="Times,serif" font-size="14.00">nil</text>
</a>
</g>
</g>
<!-- _initial_sched_trace_acceptance_state&#45;&gt;_nil -->
<g id="edge7" class="edge">
<title>_initial_sched_trace_acceptance_state&#45;&gt;_nil</title>
<path fill="none" stroke="black" d="M286.02,-672.48C300.1,-606.55 348.41,-380.35 365.45,-300.58"/>
<polygon fill="black" stroke="black" points="368.97,-300.84 367.64,-290.33 362.13,-299.37 368.97,-300.84"/>
</g>
<!-- _initial_task_trace_summary&#45;&gt;_AwkernelTaskTraceSummary -->
<g id="edge8" class="edge">
<title>_initial_task_trace_summary&#45;&gt;_AwkernelTaskTraceSummary</title>
<path fill="none" stroke="black" d="M1107.78,-373C1113.32,-413.17 1126.67,-509.87 1133.3,-557.92"/>
<polygon fill="black" stroke="black" points="1129.85,-558.51 1134.69,-567.94 1136.79,-557.55 1129.85,-558.51"/>
</g>
<!-- _initial_task_trace_summary&#45;&gt;_None -->
<g id="edge9" class="edge">
<title>_initial_task_trace_summary&#45;&gt;_None</title>
<path fill="none" stroke="black" d="M1014.97,-368.5C881.54,-388.64 636.78,-425.59 537.18,-440.63"/>
<polygon fill="black" stroke="black" points="536.53,-437.19 527.16,-442.14 537.57,-444.11 536.53,-437.19"/>
</g>
<!-- _mkAwkernelTaskTraceSummary -->
<g id="node9" class="node">
<title>_mkAwkernelTaskTraceSummary</title>
<g id="a_node9"><a xlink:href=".html#mkAwkernelTaskTraceSummary" xlink:title="mkAwkernelTaskTraceSummary">
<ellipse fill="#7faaff" stroke="black" cx="1659.47" cy="-18" rx="159.77" ry="18"/>
<text text-anchor="middle" x="1659.47" y="-14.3" font-family="Times,serif" font-size="14.00">mkAwkernelTaskTraceSummary</text>
</a>
</g>
</g>
<!-- _initial_task_trace_summary&#45;&gt;_mkAwkernelTaskTraceSummary -->
<g id="edge10" class="edge">
<title>_initial_task_trace_summary&#45;&gt;_mkAwkernelTaskTraceSummary</title>
<path fill="none" stroke="black" d="M1134.29,-337.23C1227.13,-280.8 1516.92,-104.65 1621.42,-41.13"/>
<polygon fill="black" stroke="black" points="1623.35,-44.05 1630.08,-35.87 1619.71,-38.07 1623.35,-44.05"/>
</g>
<!-- _initial_task_trace_summary&#45;&gt;_nil -->
<g id="edge11" class="edge">
<title>_initial_task_trace_summary&#45;&gt;_nil</title>
<path fill="none" stroke="black" d="M1000.52,-343.1C833.82,-324.38 515.96,-288.69 408.22,-276.59"/>
<polygon fill="black" stroke="black" points="408.5,-273.1 398.17,-275.46 407.72,-280.05 408.5,-273.1"/>
</g>
<!-- _sched_trace_family_member_with_model&#45;&gt;_accept_sched_trace_from_with_model -->
<g id="edge12" class="edge">
<title>_sched_trace_family_member_with_model&#45;&gt;_accept_sched_trace_from_with_model</title>
<path fill="none" stroke="black" d="M771.07,-1059.9C700.81,-1119.35 476.75,-1308.94 396.56,-1376.79"/>
<polygon fill="black" stroke="black" points="394.19,-1374.21 388.82,-1383.34 398.71,-1379.56 394.19,-1374.21"/>
</g>
<!-- _sched_trace_family_member_with_model&#45;&gt;_initial_sched_trace_acceptance_state -->
<g id="edge13" class="edge">
<title>_sched_trace_family_member_with_model&#45;&gt;_initial_sched_trace_acceptance_state</title>
<path fill="none" stroke="black" d="M766.42,-1023.94C681.53,-965.53 412.51,-780.43 316.55,-714.41"/>
<polygon fill="black" stroke="black" points="318.3,-711.36 308.08,-708.58 314.33,-717.13 318.3,-711.36"/>
</g>
<!-- _task_trace_entry_step -->
<g id="node13" class="node">
<title>_task_trace_entry_step</title>
<g id="a_node13"><a xlink:href=".html#task_trace_entry_step" xlink:title="task_trace_entry_step">
<ellipse fill="#f070d1" stroke="black" cx="2275.82" cy="-63.19" rx="112.38" ry="18"/>
<text text-anchor="middle" x="2275.82" y="-59.49" font-family="Times,serif" font-size="14.00">task_trace_entry_step</text>
</a>
</g>
</g>
<!-- _summarize_task_trace&#45;&gt;_task_trace_entry_step -->
<g id="edge14" class="edge">
<title>_summarize_task_trace&#45;&gt;_task_trace_entry_step</title>
<path fill="none" stroke="black" d="M2411.46,-454.24C2389.03,-389.56 2312.74,-169.63 2285.54,-91.23"/>
<polygon fill="black" stroke="black" points="2288.77,-89.86 2282.19,-81.56 2282.16,-92.15 2288.77,-89.86"/>
</g>
<!-- _task_trace_entry_valid -->
<g id="node14" class="node">
<title>_task_trace_entry_valid</title>
<g id="a_node14"><a xlink:href=".html#task_trace_entry_valid" xlink:title="task_trace_entry_valid">
<ellipse fill="#f070d1" stroke="black" cx="3103.67" cy="-400.35" rx="114.28" ry="18"/>
<text text-anchor="middle" x="3103.67" y="-396.65" font-family="Times,serif" font-size="14.00">task_trace_entry_valid</text>
</a>
</g>
</g>
<!-- _summarize_task_trace&#45;&gt;_task_trace_entry_valid -->
<g id="edge15" class="edge">
<title>_summarize_task_trace&#45;&gt;_task_trace_entry_valid</title>
<path fill="none" stroke="black" d="M2513.12,-462.34C2640.57,-448.96 2865.7,-425.33 2998.12,-411.43"/>
<polygon fill="black" stroke="black" points="2998.7,-414.89 3008.28,-410.36 2997.97,-407.93 2998.7,-414.89"/>
</g>
<!-- _task_trace_entry_step&#45;&gt;_mkAwkernelTaskTraceSummary -->
<g id="edge16" class="edge">
<title>_task_trace_entry_step&#45;&gt;_mkAwkernelTaskTraceSummary</title>
<path fill="none" stroke="black" d="M2173.35,-55.68C2072.34,-48.27 1917.06,-36.89 1803.63,-28.57"/>
<polygon fill="black" stroke="black" points="1803.7,-25.07 1793.47,-27.83 1803.19,-32.05 1803.7,-25.07"/>
</g>
</g>
</svg>
